<svg id="visual" viewBox="0 0 900 600" width="900" height="600" xmlns="http://www.w3.org/2000/svg" xmlns:xlink="http://www.w3.org/1999/xlink" version="1.1"><g stroke-width="1" stroke-linejoin="bevel"><path d="M464.8 307.3L443 281.2L418 308.7Z" fill="#297ea6" stroke="#297ea6"></path><path d="M379 279.3L386.5 336.7L418 308.7Z" fill="#00101c" stroke="#00101c"></path><path d="M418 308.7L465.3 386.8L464.8 307.3Z" fill="#297ea6" stroke="#297ea6"></path><path d="M443 281.2L379 279.3L418 308.7Z" fill="#112e42" stroke="#112e42"></path><path d="M530.5 236.2L433.3 220.2L443 281.2Z" fill="#081a28" stroke="#081a28"></path><path d="M443 281.2L433.3 220.2L379 279.3Z" fill="#246688" stroke="#246688"></path><path d="M386.5 336.7L465.3 386.8L418 308.7Z" fill="#297ea6" stroke="#297ea6"></path><path d="M465.3 386.8L508 372.8L464.8 307.3Z" fill="#112e42" stroke="#112e42"></path><path d="M529.3 197.6L432.8 201.7L433.3 220.2Z" fill="#205a7a" stroke="#205a7a"></path><path d="M530.5 236.2L443 281.2L464.8 307.3Z" fill="#1d4e6b" stroke="#1d4e6b"></path><path d="M433.3 220.2L323.8 189.2L379 279.3Z" fill="#205a7a" stroke="#205a7a"></path><path d="M508 372.8L547.8 313.8L464.8 307.3Z" fill="#277297" stroke="#277297"></path><path d="M386.5 336.7L402.5 407.4L465.3 386.8Z" fill="#205a7a" stroke="#205a7a"></path><path d="M555.3 286.7L530.5 236.2L464.8 307.3Z" fill="#277297" stroke="#277297"></path><path d="M332.8 378.4L352.8 374.8L306.5 325.8Z" fill="#00101c" stroke="#00101c"></path><path d="M386.5 336.7L352.8 374.8L402.5 407.4Z" fill="#205a7a" stroke="#205a7a"></path><path d="M547.8 313.8L555.3 286.7L464.8 307.3Z" fill="#112e42" stroke="#112e42"></path><path d="M465.3 386.8L517.5 401.4L508 372.8Z" fill="#00101c" stroke="#00101c"></path><path d="M508 372.8L548.5 388.3L547.8 313.8Z" fill="#246688" stroke="#246688"></path><path d="M485 438.4L517.5 401.4L465.3 386.8Z" fill="#1d4e6b" stroke="#1d4e6b"></path><path d="M306.5 325.8L352.8 374.8L386.5 336.7Z" fill="#00101c" stroke="#00101c"></path><path d="M352.8 374.8L379 445.9L402.5 407.4Z" fill="#205a7a" stroke="#205a7a"></path><path d="M517.5 401.4L548.5 388.3L508 372.8Z" fill="#246688" stroke="#246688"></path><path d="M547.8 313.8L605 309.8L555.3 286.7Z" fill="#112e42" stroke="#112e42"></path><path d="M294.5 293.3L306.5 325.8L379 279.3Z" fill="#00101c" stroke="#00101c"></path><path d="M379 279.3L306.5 325.8L386.5 336.7Z" fill="#1d4e6b" stroke="#1d4e6b"></path><path d="M598.5 221.7L529.3 197.6L530.5 236.2Z" fill="#297ea6" stroke="#297ea6"></path><path d="M530.5 236.2L529.3 197.6L433.3 220.2Z" fill="#205a7a" stroke="#205a7a"></path><path d="M402.5 407.4L485 438.4L465.3 386.8Z" fill="#19435d" stroke="#19435d"></path><path d="M566.8 405.4L575.3 391.3L548.5 388.3Z" fill="#00101c" stroke="#00101c"></path><path d="M323.8 189.2L294.5 293.3L379 279.3Z" fill="#081a28" stroke="#081a28"></path><path d="M332.8 378.4L379 445.9L352.8 374.8Z" fill="#081a28" stroke="#081a28"></path><path d="M402.5 407.4L379 445.9L485 438.4Z" fill="#0c2435" stroke="#0c2435"></path><path d="M384 153.1L381.5 161.2L432.8 201.7Z" fill="#081a28" stroke="#081a28"></path><path d="M432.8 201.7L381.5 161.2L433.3 220.2Z" fill="#00101c" stroke="#00101c"></path><path d="M306.5 325.8L299.3 373.8L332.8 378.4Z" fill="#112e42" stroke="#112e42"></path><path d="M332.8 378.4L311.5 462.9L379 445.9Z" fill="#205a7a" stroke="#205a7a"></path><path d="M267 342.3L299.3 373.8L306.5 325.8Z" fill="#081a28" stroke="#081a28"></path><path d="M566.8 405.4L548.5 388.3L517.5 401.4Z" fill="#297ea6" stroke="#297ea6"></path><path d="M548.5 388.3L575.3 391.3L547.8 313.8Z" fill="#112e42" stroke="#112e42"></path><path d="M527.5 452.8L566.8 405.4L517.5 401.4Z" fill="#081a28" stroke="#081a28"></path><path d="M455.8 100.6L384 153.1L432.8 201.7Z" fill="#297ea6" stroke="#297ea6"></path><path d="M381.5 161.2L323.8 189.2L433.3 220.2Z" fill="#112e42" stroke="#112e42"></path><path d="M575.3 391.3L605 309.8L547.8 313.8Z" fill="#246688" stroke="#246688"></path><path d="M555.3 286.7L599.8 234.6L530.5 236.2Z" fill="#246688" stroke="#246688"></path><path d="M349.5 98.6L323.8 189.2L381.5 161.2Z" fill="#246688" stroke="#246688"></path><path d="M485 438.4L527.5 452.8L517.5 401.4Z" fill="#205a7a" stroke="#205a7a"></path><path d="M475.3 502.4L527.5 452.8L485 438.4Z" fill="#112e42" stroke="#112e42"></path><path d="M618 300.3L599.8 234.6L555.3 286.7Z" fill="#0c2435" stroke="#0c2435"></path><path d="M527.3 99.1L505 142.6L594.5 124.1Z" fill="#297ea6" stroke="#297ea6"></path><path d="M529.3 197.6L505 142.6L432.8 201.7Z" fill="#15384f" stroke="#15384f"></path><path d="M668.8 305.3L618 300.3L662.3 364.4Z" fill="#081a28" stroke="#081a28"></path><path d="M605 309.8L618 300.3L555.3 286.7Z" fill="#00101c" stroke="#00101c"></path><path d="M607.5 208.6L598.5 221.7L614 212.6Z" fill="#15384f" stroke="#15384f"></path><path d="M599.8 234.6L598.5 221.7L530.5 236.2Z" fill="#0c2435" stroke="#0c2435"></path><path d="M229.8 294.3L267 342.3L294.5 293.3Z" fill="#297ea6" stroke="#297ea6"></path><path d="M294.5 293.3L267 342.3L306.5 325.8Z" fill="#205a7a" stroke="#205a7a"></path><path d="M614 212.6L598.5 221.7L599.8 234.6Z" fill="#277297" stroke="#277297"></path><path d="M598.5 221.7L607.5 208.6L529.3 197.6Z" fill="#00101c" stroke="#00101c"></path><path d="M677 210.2L614 212.6L694.3 253.2Z" fill="#205a7a" stroke="#205a7a"></path><path d="M488 94.5L455.8 100.6L505 142.6Z" fill="#246688" stroke="#246688"></path><path d="M227.3 228.6L243 276.2L294.5 293.3Z" fill="#1d4e6b" stroke="#1d4e6b"></path><path d="M458.8 511.9L475.3 502.4L485 438.4Z" fill="#277297" stroke="#277297"></path><path d="M299.3 373.8L311.5 462.9L332.8 378.4Z" fill="#205a7a" stroke="#205a7a"></path><path d="M379 445.9L458.8 511.9L485 438.4Z" fill="#15384f" stroke="#15384f"></path><path d="M241 440.8L311.5 462.9L299.3 373.8Z" fill="#277297" stroke="#277297"></path><path d="M488 94.5L505 142.6L527.3 99.1Z" fill="#081a28" stroke="#081a28"></path><path d="M505 142.6L455.8 100.6L432.8 201.7Z" fill="#277297" stroke="#277297"></path><path d="M384 153.1L349.5 98.6L381.5 161.2Z" fill="#246688" stroke="#246688"></path><path d="M347.5 547.5L458.8 511.9L379 445.9Z" fill="#277297" stroke="#277297"></path><path d="M226.3 323.7L242.3 368.4L267 342.3Z" fill="#112e42" stroke="#112e42"></path><path d="M267 342.3L242.3 368.4L299.3 373.8Z" fill="#205a7a" stroke="#205a7a"></path><path d="M455.8 100.6L412.8 97.1L384 153.1Z" fill="#205a7a" stroke="#205a7a"></path><path d="M243 276.2L229.8 294.3L294.5 293.3Z" fill="#00101c" stroke="#00101c"></path><path d="M597.5 469.9L566.8 405.4L527.5 452.8Z" fill="#081a28" stroke="#081a28"></path><path d="M597.5 469.9L614.8 427.9L566.8 405.4Z" fill="#297ea6" stroke="#297ea6"></path><path d="M566.8 405.4L614.8 427.9L575.3 391.3Z" fill="#0c2435" stroke="#0c2435"></path><path d="M575.3 391.3L662.3 364.4L605 309.8Z" fill="#246688" stroke="#246688"></path><path d="M597.5 469.9L527.5 452.8L565.8 509.5Z" fill="#246688" stroke="#246688"></path><path d="M505 142.6L529.3 197.6L594.5 124.1Z" fill="#081a28" stroke="#081a28"></path><path d="M455.8 100.6L426.8 63.5L412.8 97.1Z" fill="#1d4e6b" stroke="#1d4e6b"></path><path d="M229.8 294.3L226.3 323.7L267 342.3Z" fill="#297ea6" stroke="#297ea6"></path><path d="M594.5 124.1L529.3 197.6L607.5 208.6Z" fill="#0c2435" stroke="#0c2435"></path><path d="M391.5 44.1L349.5 98.6L412.8 97.1Z" fill="#112e42" stroke="#112e42"></path><path d="M412.8 97.1L349.5 98.6L384 153.1Z" fill="#297ea6" stroke="#297ea6"></path><path d="M323.8 189.2L227.3 228.6L294.5 293.3Z" fill="#205a7a" stroke="#205a7a"></path><path d="M156 235.6L215.3 307.3L229.8 294.3Z" fill="#205a7a" stroke="#205a7a"></path><path d="M229.8 294.3L215.3 307.3L226.3 323.7Z" fill="#0c2435" stroke="#0c2435"></path><path d="M154.8 396.8L233 435.4L242.3 368.4Z" fill="#205a7a" stroke="#205a7a"></path><path d="M227.3 228.6L229.8 294.3L243 276.2Z" fill="#081a28" stroke="#081a28"></path><path d="M250 155.1L227.3 228.6L323.8 189.2Z" fill="#205a7a" stroke="#205a7a"></path><path d="M565.8 509.5L527.5 452.8L475.3 502.4Z" fill="#15384f" stroke="#15384f"></path><path d="M662.3 364.4L618 300.3L605 309.8Z" fill="#0c2435" stroke="#0c2435"></path><path d="M618 300.3L694.3 253.2L599.8 234.6Z" fill="#112e42" stroke="#112e42"></path><path d="M662.3 364.4L575.3 391.3L614.8 427.9Z" fill="#1d4e6b" stroke="#1d4e6b"></path><path d="M678 462.4L662.3 364.4L614.8 427.9Z" fill="#112e42" stroke="#112e42"></path><path d="M661.8 191.2L607.5 208.6L614 212.6Z" fill="#277297" stroke="#277297"></path><path d="M661.8 191.2L594.5 124.1L607.5 208.6Z" fill="#15384f" stroke="#15384f"></path><path d="M485.3 555.9L565.8 509.5L475.3 502.4Z" fill="#081a28" stroke="#081a28"></path><path d="M349.5 98.6L256.3 152.1L323.8 189.2Z" fill="#081a28" stroke="#081a28"></path><path d="M662.3 364.4L681.8 304.7L668.8 305.3Z" fill="#112e42" stroke="#112e42"></path><path d="M677 210.2L661.8 191.2L614 212.6Z" fill="#297ea6" stroke="#297ea6"></path><path d="M448 0L426.8 63.5L480.3 0Z" fill="#277297" stroke="#277297"></path><path d="M488 94.5L426.8 63.5L455.8 100.6Z" fill="#297ea6" stroke="#297ea6"></path><path d="M233 435.4L241 440.8L242.3 368.4Z" fill="#00101c" stroke="#00101c"></path><path d="M242.3 368.4L241 440.8L299.3 373.8Z" fill="#19435d" stroke="#19435d"></path><path d="M462.3 574.5L485.3 555.9L458.8 511.9Z" fill="#19435d" stroke="#19435d"></path><path d="M237.3 152.2L250 155.1L256.3 152.1Z" fill="#1d4e6b" stroke="#1d4e6b"></path><path d="M256.3 152.1L250 155.1L323.8 189.2Z" fill="#15384f" stroke="#15384f"></path><path d="M162.5 367.4L242.3 368.4L226.3 323.7Z" fill="#277297" stroke="#277297"></path><path d="M594.5 124.1L558.3 87.5L527.3 99.1Z" fill="#297ea6" stroke="#297ea6"></path><path d="M480.3 0L426.8 63.5L488 94.5Z" fill="#081a28" stroke="#081a28"></path><path d="M614 212.6L599.8 234.6L694.3 253.2Z" fill="#00101c" stroke="#00101c"></path><path d="M594.5 124.1L612 71.1L558.3 87.5Z" fill="#246688" stroke="#246688"></path><path d="M694.3 253.2L618 300.3L668.8 305.3Z" fill="#277297" stroke="#277297"></path><path d="M232.3 90.5L237.3 152.2L256.3 152.1Z" fill="#297ea6" stroke="#297ea6"></path><path d="M250 155.1L237.3 152.2L227.3 228.6Z" fill="#0c2435" stroke="#0c2435"></path><path d="M145.8 301.7L169 332.7L215.3 307.3Z" fill="#246688" stroke="#246688"></path><path d="M320.3 534.5L379 445.9L311.5 462.9Z" fill="#297ea6" stroke="#297ea6"></path><path d="M458.8 511.9L485.3 555.9L475.3 502.4Z" fill="#297ea6" stroke="#297ea6"></path><path d="M681.8 304.7L694.3 253.2L668.8 305.3Z" fill="#00101c" stroke="#00101c"></path><path d="M325.3 560.9L320.3 534.5L272 543.9Z" fill="#1d4e6b" stroke="#1d4e6b"></path><path d="M272 543.9L320.3 534.5L311.5 462.9Z" fill="#277297" stroke="#277297"></path><path d="M320.3 534.5L347.5 547.5L379 445.9Z" fill="#1d4e6b" stroke="#1d4e6b"></path><path d="M409.8 0L391.5 44.1L426.8 63.5Z" fill="#297ea6" stroke="#297ea6"></path><path d="M426.8 63.5L391.5 44.1L412.8 97.1Z" fill="#112e42" stroke="#112e42"></path><path d="M349.5 98.6L232.3 90.5L256.3 152.1Z" fill="#00101c" stroke="#00101c"></path><path d="M347.5 547.5L401.8 570.5L458.8 511.9Z" fill="#00101c" stroke="#00101c"></path><path d="M401.8 570.5L462.3 574.5L458.8 511.9Z" fill="#081a28" stroke="#081a28"></path><path d="M485.3 555.9L499 589.5L565.8 509.5Z" fill="#19435d" stroke="#19435d"></path><path d="M156 235.6L229.8 294.3L227.3 228.6Z" fill="#15384f" stroke="#15384f"></path><path d="M215.3 307.3L169 332.7L226.3 323.7Z" fill="#246688" stroke="#246688"></path><path d="M320.3 534.5L325.3 560.9L347.5 547.5Z" fill="#081a28" stroke="#081a28"></path><path d="M347.5 547.5L389 600L401.8 570.5Z" fill="#081a28" stroke="#081a28"></path><path d="M272 543.9L311.5 462.9L241 440.8Z" fill="#0c2435" stroke="#0c2435"></path><path d="M597.5 469.9L678 462.4L614.8 427.9Z" fill="#19435d" stroke="#19435d"></path><path d="M662.3 364.4L728.3 336.3L681.8 304.7Z" fill="#246688" stroke="#246688"></path><path d="M681.8 304.7L728.3 336.3L694.3 253.2Z" fill="#00101c" stroke="#00101c"></path><path d="M693.3 493.5L678 462.4L597.5 469.9Z" fill="#205a7a" stroke="#205a7a"></path><path d="M693.3 493.5L597.5 469.9L565.8 509.5Z" fill="#277297" stroke="#277297"></path><path d="M169 332.7L162.5 367.4L226.3 323.7Z" fill="#246688" stroke="#246688"></path><path d="M193.8 487.5L272 543.9L241 440.8Z" fill="#081a28" stroke="#081a28"></path><path d="M127.3 335.7L157.5 354.8L169 332.7Z" fill="#081a28" stroke="#081a28"></path><path d="M169 332.7L157.5 354.8L162.5 367.4Z" fill="#1d4e6b" stroke="#1d4e6b"></path><path d="M732 337.7L728.3 336.3L662.3 364.4Z" fill="#15384f" stroke="#15384f"></path><path d="M727.3 190.6L661.8 191.2L677 210.2Z" fill="#0c2435" stroke="#0c2435"></path><path d="M628.8 84.1L612 71.1L594.5 124.1Z" fill="#246688" stroke="#246688"></path><path d="M480.3 0L488 94.5L506.5 0Z" fill="#277297" stroke="#277297"></path><path d="M628.8 84.1L594.5 124.1L661.8 191.2Z" fill="#00101c" stroke="#00101c"></path><path d="M733 124.5L628.8 84.1L661.8 191.2Z" fill="#297ea6" stroke="#297ea6"></path><path d="M727.3 190.6L677 210.2L694.3 253.2Z" fill="#19435d" stroke="#19435d"></path><path d="M445.8 600L499 589.5L462.3 574.5Z" fill="#081a28" stroke="#081a28"></path><path d="M462.3 574.5L499 589.5L485.3 555.9Z" fill="#081a28" stroke="#081a28"></path><path d="M445.8 600L462.3 574.5L401.8 570.5Z" fill="#246688" stroke="#246688"></path><path d="M176.5 184.2L227.3 228.6L237.3 152.2Z" fill="#1d4e6b" stroke="#1d4e6b"></path><path d="M176.5 184.2L175.8 186.2L227.3 228.6Z" fill="#1d4e6b" stroke="#1d4e6b"></path><path d="M171.8 185.6L176.5 184.2L182.5 104.5Z" fill="#112e42" stroke="#112e42"></path><path d="M774.5 428.8L732 337.7L662.3 364.4Z" fill="#277297" stroke="#277297"></path><path d="M728.3 336.3L750.5 241.7L694.3 253.2Z" fill="#0c2435" stroke="#0c2435"></path><path d="M193.8 487.5L241 440.8L233 435.4Z" fill="#15384f" stroke="#15384f"></path><path d="M171.8 185.6L156 235.6L175.8 186.2Z" fill="#0c2435" stroke="#0c2435"></path><path d="M175.8 186.2L156 235.6L227.3 228.6Z" fill="#246688" stroke="#246688"></path><path d="M182.5 104.5L176.5 184.2L237.3 152.2Z" fill="#297ea6" stroke="#297ea6"></path><path d="M176.5 184.2L171.8 185.6L175.8 186.2Z" fill="#00101c" stroke="#00101c"></path><path d="M389 600L347.5 547.5L323.3 600Z" fill="#277297" stroke="#277297"></path><path d="M389 600L445.8 600L401.8 570.5Z" fill="#1d4e6b" stroke="#1d4e6b"></path><path d="M156 235.6L145.8 301.7L215.3 307.3Z" fill="#00101c" stroke="#00101c"></path><path d="M289.5 41.5L232.3 90.5L349.5 98.6Z" fill="#205a7a" stroke="#205a7a"></path><path d="M323.3 600L347.5 547.5L325.3 560.9Z" fill="#205a7a" stroke="#205a7a"></path><path d="M157.5 354.8L154.8 396.8L162.5 367.4Z" fill="#1d4e6b" stroke="#1d4e6b"></path><path d="M162.5 367.4L154.8 396.8L242.3 368.4Z" fill="#246688" stroke="#246688"></path><path d="M87.3 381.3L154.8 396.8L157.5 354.8Z" fill="#15384f" stroke="#15384f"></path><path d="M154.8 396.8L181.5 457.9L233 435.4Z" fill="#00101c" stroke="#00101c"></path><path d="M328.5 0L289.5 41.5L349.5 98.6Z" fill="#277297" stroke="#277297"></path><path d="M488 94.5L527.3 99.1L506.5 0Z" fill="#19435d" stroke="#19435d"></path><path d="M391.5 44.1L328.5 0L349.5 98.6Z" fill="#00101c" stroke="#00101c"></path><path d="M448 0L409.8 0L426.8 63.5Z" fill="#112e42" stroke="#112e42"></path><path d="M506.5 0L527.3 99.1L558.3 87.5Z" fill="#0c2435" stroke="#0c2435"></path><path d="M153.8 478.4L193.8 487.5L181.5 457.9Z" fill="#1d4e6b" stroke="#1d4e6b"></path><path d="M181.5 457.9L193.8 487.5L233 435.4Z" fill="#1d4e6b" stroke="#1d4e6b"></path><path d="M750.5 241.7L727.3 190.6L694.3 253.2Z" fill="#15384f" stroke="#15384f"></path><path d="M547.8 -7.5L506.5 0L558.3 87.5Z" fill="#205a7a" stroke="#205a7a"></path><path d="M608.5 600L693.3 493.5L565.8 509.5Z" fill="#15384f" stroke="#15384f"></path><path d="M774.5 428.8L777.3 334.8L732 337.7Z" fill="#277297" stroke="#277297"></path><path d="M145.8 301.7L127.3 335.7L169 332.7Z" fill="#205a7a" stroke="#205a7a"></path><path d="M154.8 396.8L153.8 478.4L181.5 457.9Z" fill="#00101c" stroke="#00101c"></path><path d="M41.3 329.8L127.3 335.7L145.8 301.7Z" fill="#277297" stroke="#277297"></path><path d="M732 337.7L750.5 241.7L728.3 336.3Z" fill="#0c2435" stroke="#0c2435"></path><path d="M294.5 600L325.3 560.9L272 543.9Z" fill="#297ea6" stroke="#297ea6"></path><path d="M294.5 600L323.3 600L325.3 560.9Z" fill="#081a28" stroke="#081a28"></path><path d="M543.5 616.5L573.3 600L499 589.5Z" fill="#00101c" stroke="#00101c"></path><path d="M499 589.5L573.3 600L565.8 509.5Z" fill="#00101c" stroke="#00101c"></path><path d="M409.8 0L328.5 0L391.5 44.1Z" fill="#246688" stroke="#246688"></path><path d="M159 53.5L182.5 104.5L232.3 90.5Z" fill="#297ea6" stroke="#297ea6"></path><path d="M223 0L232.3 90.5L289.5 41.5Z" fill="#0c2435" stroke="#0c2435"></path><path d="M232.3 90.5L182.5 104.5L237.3 152.2Z" fill="#19435d" stroke="#19435d"></path><path d="M171.8 185.6L104.8 158.1L156 235.6Z" fill="#19435d" stroke="#19435d"></path><path d="M41.3 329.8L87.3 381.3L127.3 335.7Z" fill="#205a7a" stroke="#205a7a"></path><path d="M445.8 600L543.5 616.5L499 589.5Z" fill="#15384f" stroke="#15384f"></path><path d="M389 600L543.5 616.5L445.8 600Z" fill="#081a28" stroke="#081a28"></path><path d="M323.3 600L543.5 616.5L389 600Z" fill="#1d4e6b" stroke="#1d4e6b"></path><path d="M281 600L294.5 600L272 543.9Z" fill="#0c2435" stroke="#0c2435"></path><path d="M323.3 600L121.3 616.5L543.5 616.5Z" fill="#297ea6" stroke="#297ea6"></path><path d="M612 71.1L547.8 -7.5L558.3 87.5Z" fill="#246688" stroke="#246688"></path><path d="M506.5 0L547.8 -7.5L480.3 0Z" fill="#19435d" stroke="#19435d"></path><path d="M480.3 0L547.8 -7.5L448 0Z" fill="#15384f" stroke="#15384f"></path><path d="M448 0L547.8 -7.5L409.8 0Z" fill="#297ea6" stroke="#297ea6"></path><path d="M409.8 0L547.8 -7.5L328.5 0Z" fill="#1d4e6b" stroke="#1d4e6b"></path><path d="M629.5 32.5L547.8 -7.5L612 71.1Z" fill="#081a28" stroke="#081a28"></path><path d="M629.5 32.5L612 71.1L628.8 84.1Z" fill="#205a7a" stroke="#205a7a"></path><path d="M543.5 616.5L588.8 600L573.3 600Z" fill="#112e42" stroke="#112e42"></path><path d="M573.3 600L588.8 600L565.8 509.5Z" fill="#1d4e6b" stroke="#1d4e6b"></path><path d="M733.3 52.5L629.5 32.5L628.8 84.1Z" fill="#297ea6" stroke="#297ea6"></path><path d="M68.3 444.4L153.8 478.4L154.8 396.8Z" fill="#297ea6" stroke="#297ea6"></path><path d="M218 572.5L281 600L272 543.9Z" fill="#297ea6" stroke="#297ea6"></path><path d="M218 572.5L272 543.9L193.8 487.5Z" fill="#205a7a" stroke="#205a7a"></path><path d="M294.5 600L121.3 616.5L323.3 600Z" fill="#1d4e6b" stroke="#1d4e6b"></path><path d="M774.5 428.8L662.3 364.4L678 462.4Z" fill="#0c2435" stroke="#0c2435"></path><path d="M732 337.7L777.3 334.8L750.5 241.7Z" fill="#1d4e6b" stroke="#1d4e6b"></path><path d="M588.8 600L608.5 600L565.8 509.5Z" fill="#19435d" stroke="#19435d"></path><path d="M543.5 616.5L608.5 600L588.8 600Z" fill="#277297" stroke="#277297"></path><path d="M754.5 122.5L733 124.5L727.3 190.6Z" fill="#277297" stroke="#277297"></path><path d="M727.3 190.6L733 124.5L661.8 191.2Z" fill="#246688" stroke="#246688"></path><path d="M785.5 201.6L727.3 190.6L750.5 241.7Z" fill="#205a7a" stroke="#205a7a"></path><path d="M723 556.5L726.5 497.9L693.3 493.5Z" fill="#00101c" stroke="#00101c"></path><path d="M693.3 493.5L726.5 497.9L678 462.4Z" fill="#00101c" stroke="#00101c"></path><path d="M741 551.9L730.3 496.9L726.5 497.9Z" fill="#081a28" stroke="#081a28"></path><path d="M726.5 497.9L730.3 496.9L678 462.4Z" fill="#0c2435" stroke="#0c2435"></path><path d="M182.5 555.5L218 572.5L193.8 487.5Z" fill="#112e42" stroke="#112e42"></path><path d="M99.3 -9.5L264.3 0L328.5 0Z" fill="#0c2435" stroke="#0c2435"></path><path d="M328.5 0L264.3 0L289.5 41.5Z" fill="#15384f" stroke="#15384f"></path><path d="M730.3 496.9L774.5 428.8L678 462.4Z" fill="#112e42" stroke="#112e42"></path><path d="M802.3 202.7L785.5 201.6L750.5 241.7Z" fill="#277297" stroke="#277297"></path><path d="M807.5 313.3L750.5 241.7L777.3 334.8Z" fill="#0c2435" stroke="#0c2435"></path><path d="M712.3 0L632.8 0L629.5 32.5Z" fill="#277297" stroke="#277297"></path><path d="M629.5 32.5L632.8 0L547.8 -7.5Z" fill="#297ea6" stroke="#297ea6"></path><path d="M153.8 478.4L182.5 555.5L193.8 487.5Z" fill="#205a7a" stroke="#205a7a"></path><path d="M69.5 220.7L145.8 301.7L156 235.6Z" fill="#205a7a" stroke="#205a7a"></path><path d="M127.3 335.7L87.3 381.3L157.5 354.8Z" fill="#205a7a" stroke="#205a7a"></path><path d="M163.8 600L166.5 600L182.5 555.5Z" fill="#081a28" stroke="#081a28"></path><path d="M799.8 176.2L754.5 122.5L727.3 190.6Z" fill="#246688" stroke="#246688"></path><path d="M733 124.5L733.3 52.5L628.8 84.1Z" fill="#246688" stroke="#246688"></path><path d="M841.5 371.4L805.8 325.8L777.3 334.8Z" fill="#205a7a" stroke="#205a7a"></path><path d="M159 53.5L130.8 110.5L182.5 104.5Z" fill="#1d4e6b" stroke="#1d4e6b"></path><path d="M182.5 104.5L130.8 110.5L171.8 185.6Z" fill="#1d4e6b" stroke="#1d4e6b"></path><path d="M805.8 325.8L807.5 313.3L777.3 334.8Z" fill="#277297" stroke="#277297"></path><path d="M130.8 110.5L104.8 158.1L171.8 185.6Z" fill="#19435d" stroke="#19435d"></path><path d="M772.8 104.5L757.3 106.1L754.5 122.5Z" fill="#112e42" stroke="#112e42"></path><path d="M754.5 122.5L757.3 106.1L733 124.5Z" fill="#19435d" stroke="#19435d"></path><path d="M99.3 -9.5L223 0L264.3 0Z" fill="#112e42" stroke="#112e42"></path><path d="M264.3 0L223 0L289.5 41.5Z" fill="#00101c" stroke="#00101c"></path><path d="M807.5 313.3L802.3 202.7L750.5 241.7Z" fill="#0c2435" stroke="#0c2435"></path><path d="M785.5 201.6L799.8 176.2L727.3 190.6Z" fill="#00101c" stroke="#00101c"></path><path d="M679 600L723 556.5L693.3 493.5Z" fill="#246688" stroke="#246688"></path><path d="M730.3 496.9L811.8 449.4L774.5 428.8Z" fill="#00101c" stroke="#00101c"></path><path d="M223 0L159 53.5L232.3 90.5Z" fill="#297ea6" stroke="#297ea6"></path><path d="M90.3 98.6L72.5 157.1L104.8 158.1Z" fill="#19435d" stroke="#19435d"></path><path d="M543.5 616.5L679 600L608.5 600Z" fill="#112e42" stroke="#112e42"></path><path d="M608.5 600L679 600L693.3 493.5Z" fill="#112e42" stroke="#112e42"></path><path d="M802.3 202.7L799.8 176.2L785.5 201.6Z" fill="#1d4e6b" stroke="#1d4e6b"></path><path d="M72.5 157.1L69.5 220.7L104.8 158.1Z" fill="#205a7a" stroke="#205a7a"></path><path d="M104.8 158.1L69.5 220.7L156 235.6Z" fill="#246688" stroke="#246688"></path><path d="M805.8 325.8L825.8 310.7L807.5 313.3Z" fill="#205a7a" stroke="#205a7a"></path><path d="M807.5 313.3L825.8 310.7L802.3 202.7Z" fill="#205a7a" stroke="#205a7a"></path><path d="M890.8 123.6L806.8 95.1L799.8 176.2Z" fill="#112e42" stroke="#112e42"></path><path d="M841.5 371.4L825.8 310.7L805.8 325.8Z" fill="#205a7a" stroke="#205a7a"></path><path d="M841.5 371.4L777.3 334.8L774.5 428.8Z" fill="#277297" stroke="#277297"></path><path d="M757.3 106.1L733.3 52.5L733 124.5Z" fill="#15384f" stroke="#15384f"></path><path d="M772.8 104.5L733.3 52.5L757.3 106.1Z" fill="#081a28" stroke="#081a28"></path><path d="M799.8 176.2L772.8 104.5L754.5 122.5Z" fill="#205a7a" stroke="#205a7a"></path><path d="M723.5 600L741 551.9L723 556.5Z" fill="#246688" stroke="#246688"></path><path d="M723 556.5L741 551.9L726.5 497.9Z" fill="#246688" stroke="#246688"></path><path d="M90.3 98.6L104.8 158.1L130.8 110.5Z" fill="#1d4e6b" stroke="#1d4e6b"></path><path d="M826.8 493.9L811.8 449.4L730.3 496.9Z" fill="#246688" stroke="#246688"></path><path d="M45.5 372.3L68.3 444.4L87.3 381.3Z" fill="#112e42" stroke="#112e42"></path><path d="M87.3 381.3L68.3 444.4L154.8 396.8Z" fill="#246688" stroke="#246688"></path><path d="M0 333.8L41.3 329.8L0 240.7Z" fill="#1d4e6b" stroke="#1d4e6b"></path><path d="M69.5 220.7L41.3 329.8L145.8 301.7Z" fill="#112e42" stroke="#112e42"></path><path d="M41.3 329.8L45.5 372.3L87.3 381.3Z" fill="#277297" stroke="#277297"></path><path d="M99.8 537.9L182.5 555.5L153.8 478.4Z" fill="#112e42" stroke="#112e42"></path><path d="M182.5 555.5L166.5 600L218 572.5Z" fill="#00101c" stroke="#00101c"></path><path d="M218 572.5L166.5 600L281 600Z" fill="#246688" stroke="#246688"></path><path d="M281 600L121.3 616.5L294.5 600Z" fill="#00101c" stroke="#00101c"></path><path d="M0 501.4L79.3 485.9L68.3 444.4Z" fill="#0c2435" stroke="#0c2435"></path><path d="M68.3 444.4L79.3 485.9L153.8 478.4Z" fill="#112e42" stroke="#112e42"></path><path d="M99.8 537.9L163.8 600L182.5 555.5Z" fill="#081a28" stroke="#081a28"></path><path d="M166.5 600L121.3 616.5L281 600Z" fill="#00101c" stroke="#00101c"></path><path d="M811.8 449.4L841.5 371.4L774.5 428.8Z" fill="#1d4e6b" stroke="#1d4e6b"></path><path d="M855.5 222.2L799.8 176.2L802.3 202.7Z" fill="#205a7a" stroke="#205a7a"></path><path d="M159 53.5L90.3 98.6L130.8 110.5Z" fill="#205a7a" stroke="#205a7a"></path><path d="M100.3 0L90.3 98.6L159 53.5Z" fill="#00101c" stroke="#00101c"></path><path d="M0 197.2L48.3 198.2L0 158.1Z" fill="#297ea6" stroke="#297ea6"></path><path d="M72.5 157.1L48.3 198.2L69.5 220.7Z" fill="#00101c" stroke="#00101c"></path><path d="M735 0L712.3 0L733.3 52.5Z" fill="#205a7a" stroke="#205a7a"></path><path d="M733.3 52.5L712.3 0L629.5 32.5Z" fill="#205a7a" stroke="#205a7a"></path><path d="M632.8 0L712.3 0L547.8 -7.5Z" fill="#081a28" stroke="#081a28"></path><path d="M679 600L723.5 600L723 556.5Z" fill="#297ea6" stroke="#297ea6"></path><path d="M830.8 524.5L826.8 493.9L730.3 496.9Z" fill="#277297" stroke="#277297"></path><path d="M543.5 616.5L723.5 600L679 600Z" fill="#277297" stroke="#277297"></path><path d="M79.3 485.9L99.8 537.9L153.8 478.4Z" fill="#19435d" stroke="#19435d"></path><path d="M799.8 176.2L806.8 95.1L772.8 104.5Z" fill="#297ea6" stroke="#297ea6"></path><path d="M772.8 104.5L806.5 74.1L733.3 52.5Z" fill="#081a28" stroke="#081a28"></path><path d="M855.5 222.2L802.3 202.7L825.8 310.7Z" fill="#1d4e6b" stroke="#1d4e6b"></path><path d="M223 0L149.8 0L159 53.5Z" fill="#1d4e6b" stroke="#1d4e6b"></path><path d="M99.3 -9.5L149.8 0L223 0Z" fill="#297ea6" stroke="#297ea6"></path><path d="M900 233.6L855.5 222.2L825.8 310.7Z" fill="#246688" stroke="#246688"></path><path d="M806.5 74.1L735 0L733.3 52.5Z" fill="#00101c" stroke="#00101c"></path><path d="M712.3 0L735 0L547.8 -7.5Z" fill="#1d4e6b" stroke="#1d4e6b"></path><path d="M900 390.3L893.8 364.3L841.5 371.4Z" fill="#246688" stroke="#246688"></path><path d="M830.8 524.5L730.3 496.9L741 551.9Z" fill="#1d4e6b" stroke="#1d4e6b"></path><path d="M900 78.5L806.5 74.1L806.8 95.1Z" fill="#00101c" stroke="#00101c"></path><path d="M806.8 95.1L806.5 74.1L772.8 104.5Z" fill="#112e42" stroke="#112e42"></path><path d="M99.3 -9.5L134.5 0L149.8 0Z" fill="#1d4e6b" stroke="#1d4e6b"></path><path d="M149.8 0L134.5 0L159 53.5Z" fill="#297ea6" stroke="#297ea6"></path><path d="M100.3 0L56.5 97.6L90.3 98.6Z" fill="#0c2435" stroke="#0c2435"></path><path d="M90.3 98.6L56.5 97.6L72.5 157.1Z" fill="#1d4e6b" stroke="#1d4e6b"></path><path d="M41.3 329.8L0 333.8L45.5 372.3Z" fill="#246688" stroke="#246688"></path><path d="M45.5 372.3L0 397.3L68.3 444.4Z" fill="#205a7a" stroke="#205a7a"></path><path d="M67.3 600L121.3 616.5L99.8 537.9Z" fill="#1d4e6b" stroke="#1d4e6b"></path><path d="M0 240.7L41.3 329.8L69.5 220.7Z" fill="#15384f" stroke="#15384f"></path><path d="M0 240.7L69.5 220.7L48.3 198.2Z" fill="#246688" stroke="#246688"></path><path d="M0 197.2L0 240.7L48.3 198.2Z" fill="#1d4e6b" stroke="#1d4e6b"></path><path d="M67.3 600L99.8 537.9L0 567.5Z" fill="#112e42" stroke="#112e42"></path><path d="M99.8 537.9L121.3 616.5L163.8 600Z" fill="#0c2435" stroke="#0c2435"></path><path d="M163.8 600L121.3 616.5L166.5 600Z" fill="#277297" stroke="#277297"></path><path d="M789.3 600L830.8 524.5L741 551.9Z" fill="#1d4e6b" stroke="#1d4e6b"></path><path d="M900 390.3L841.5 371.4L900 406.4Z" fill="#00101c" stroke="#00101c"></path><path d="M841.5 371.4L893.8 364.3L825.8 310.7Z" fill="#15384f" stroke="#15384f"></path><path d="M0 333.8L0 397.3L45.5 372.3Z" fill="#1d4e6b" stroke="#1d4e6b"></path><path d="M0 158.1L48.3 198.2L72.5 157.1Z" fill="#15384f" stroke="#15384f"></path><path d="M543.5 616.5L789.3 600L723.5 600Z" fill="#112e42" stroke="#112e42"></path><path d="M723.5 600L789.3 600L741 551.9Z" fill="#112e42" stroke="#112e42"></path><path d="M841.5 371.4L900 406.8L900 406.4Z" fill="#081a28" stroke="#081a28"></path><path d="M134.5 0L100.3 0L159 53.5Z" fill="#1d4e6b" stroke="#1d4e6b"></path><path d="M56.5 97.6L16.3 127.1L72.5 157.1Z" fill="#15384f" stroke="#15384f"></path><path d="M99.3 -9.5L100.3 0L134.5 0Z" fill="#19435d" stroke="#19435d"></path><path d="M543.5 616.5L793.8 600L789.3 600Z" fill="#00101c" stroke="#00101c"></path><path d="M789.3 600L793.8 600L830.8 524.5Z" fill="#205a7a" stroke="#205a7a"></path><path d="M0 117.6L16.3 127.1L0 96.5Z" fill="#205a7a" stroke="#205a7a"></path><path d="M893.8 364.3L900 233.6L825.8 310.7Z" fill="#0c2435" stroke="#0c2435"></path><path d="M855.5 222.2L890.8 123.6L799.8 176.2Z" fill="#297ea6" stroke="#297ea6"></path><path d="M547.8 -7.5L99.3 -9.5L328.5 0Z" fill="#0c2435" stroke="#0c2435"></path><path d="M0 96.5L16.3 127.1L56.5 97.6Z" fill="#081a28" stroke="#081a28"></path><path d="M900 233.6L900 230.7L855.5 222.2Z" fill="#1d4e6b" stroke="#1d4e6b"></path><path d="M16.3 127.1L0 158.1L72.5 157.1Z" fill="#1d4e6b" stroke="#1d4e6b"></path><path d="M811.8 449.4L900 487.9L900 406.8Z" fill="#277297" stroke="#277297"></path><path d="M841.5 371.4L811.8 449.4L900 406.8Z" fill="#297ea6" stroke="#297ea6"></path><path d="M893.8 364.3L900 390.3L900 233.6Z" fill="#277297" stroke="#277297"></path><path d="M811.8 449.4L826.8 493.9L900 487.9Z" fill="#205a7a" stroke="#205a7a"></path><path d="M900 487.9L826.8 493.9L900 514.5Z" fill="#0c2435" stroke="#0c2435"></path><path d="M900 230.7L900 200.2L855.5 222.2Z" fill="#0c2435" stroke="#0c2435"></path><path d="M0 502.9L99.8 537.9L79.3 485.9Z" fill="#15384f" stroke="#15384f"></path><path d="M0 96.5L56.5 97.6L0 0Z" fill="#0c2435" stroke="#0c2435"></path><path d="M16.3 127.1L0 117.6L0 158.1Z" fill="#297ea6" stroke="#297ea6"></path><path d="M793.8 600L834.5 581.5L830.8 524.5Z" fill="#15384f" stroke="#15384f"></path><path d="M0 397.3L0 501.4L68.3 444.4Z" fill="#112e42" stroke="#112e42"></path><path d="M0 501.4L0 502.9L79.3 485.9Z" fill="#205a7a" stroke="#205a7a"></path><path d="M900 200.2L890.8 123.6L855.5 222.2Z" fill="#081a28" stroke="#081a28"></path><path d="M806.5 74.1L841.5 0L735 0Z" fill="#112e42" stroke="#112e42"></path><path d="M0 0L56.5 97.6L100.3 0Z" fill="#15384f" stroke="#15384f"></path><path d="M900 514.5L826.8 493.9L830.8 524.5Z" fill="#0c2435" stroke="#0c2435"></path><path d="M900 67.1L841.5 0L806.5 74.1Z" fill="#277297" stroke="#277297"></path><path d="M735 0L841.5 0L547.8 -7.5Z" fill="#1d4e6b" stroke="#1d4e6b"></path><path d="M834.5 581.5L900 514.5L830.8 524.5Z" fill="#297ea6" stroke="#297ea6"></path><path d="M900 200.2L900 78.5L890.8 123.6Z" fill="#205a7a" stroke="#205a7a"></path><path d="M890.8 123.6L900 78.5L806.8 95.1Z" fill="#19435d" stroke="#19435d"></path><path d="M0 502.9L0 567.5L99.8 537.9Z" fill="#205a7a" stroke="#205a7a"></path><path d="M900 78.5L900 67.1L806.5 74.1Z" fill="#1d4e6b" stroke="#1d4e6b"></path><path d="M900 67.1L863.8 0L841.5 0Z" fill="#246688" stroke="#246688"></path><path d="M841.5 0L863.8 0L547.8 -7.5Z" fill="#246688" stroke="#246688"></path><path d="M0 567.5L0 600L67.3 600Z" fill="#205a7a" stroke="#205a7a"></path><path d="M67.3 600L0 600L121.3 616.5Z" fill="#081a28" stroke="#081a28"></path><path d="M99.3 -9.5L0 0L100.3 0Z" fill="#112e42" stroke="#112e42"></path><path d="M834.5 581.5L900 600L900 514.5Z" fill="#0c2435" stroke="#0c2435"></path><path d="M793.8 600L900 600L834.5 581.5Z" fill="#205a7a" stroke="#205a7a"></path><path d="M543.5 616.5L900 600L793.8 600Z" fill="#081a28" stroke="#081a28"></path><path d="M900 67.1L900 0L863.8 0Z" fill="#246688" stroke="#246688"></path><path d="M863.8 0L900 0L547.8 -7.5Z" fill="#0c2435" stroke="#0c2435"></path></g></svg>